<?xml version="1.0" standalone="no"?>
<!DOCTYPE svg PUBLIC "-//W3C//DTD SVG 20010904//EN"
 "http://www.w3.org/TR/2001/REC-SVG-20010904/DTD/svg10.dtd">
<svg version="1.0" xmlns="http://www.w3.org/2000/svg"
 width="1080.000000pt" height="1080.000000pt" viewBox="0 0 1080.000000 1080.000000"
 preserveAspectRatio="xMidYMid meet">

<g transform="translate(0.000000,1080.000000) scale(0.100000,-0.100000)"
fill="#000000" stroke="none">
<path d="M5444 4995 c-4 -10 -14 -13 -30 -9 -22 6 -24 3 -24 -30 0 -26 -5 -38
-17 -43 -10 -3 -37 -25 -60 -49 -27 -29 -47 -42 -57 -38 -12 5 -16 0 -16 -18
0 -14 -9 -33 -19 -42 -21 -19 -41 -14 -41 9 0 21 -41 30 -52 12 -7 -13 -14
-14 -39 -5 -40 14 -53 1 -34 -36 18 -34 19 -56 4 -56 -7 0 -9 -12 -5 -33 3
-18 3 -36 0 -40 -10 -10 -81 32 -98 59 -9 13 -24 24 -32 24 -10 0 -14 6 -11
15 8 20 -5 26 -26 10 -17 -12 -17 -14 -2 -22 11 -6 17 -25 19 -51 1 -23 5 -44
9 -48 13 -13 7 -55 -8 -61 -9 -3 -24 2 -34 11 -26 24 -55 21 -48 -4 3 -12 1
-20 -6 -19 -24 4 -67 -13 -67 -27 0 -7 -6 -17 -14 -21 -7 -4 -17 -18 -20 -30
-6 -19 -3 -23 13 -23 11 0 23 -4 26 -10 3 -5 0 -10 -8 -10 -7 0 -23 -13 -34
-28 -19 -26 -20 -31 -7 -61 8 -18 11 -38 7 -45 -4 -6 -8 -18 -8 -26 0 -24 -58
-25 -80 0 -10 11 -22 20 -27 20 -10 0 0 -49 14 -67 14 -18 -34 -45 -65 -38
-39 10 -51 -2 -32 -32 9 -13 14 -31 11 -39 -3 -8 3 -22 14 -31 11 -10 20 -26
20 -36 0 -10 9 -21 20 -24 11 -3 23 -16 26 -29 4 -14 15 -29 25 -35 23 -12 24
-35 4 -55 -8 -9 -15 -27 -14 -42 0 -26 1 -26 9 -4 6 12 18 22 30 22 11 0 20 5
20 11 0 20 57 -36 58 -56 0 -24 5 -46 14 -60 3 -5 16 -27 27 -49 l22 -39 -22
6 c-20 5 -21 3 -15 -33 6 -41 -7 -61 -27 -41 -17 17 -26 13 -20 -9 3 -11 11
-20 18 -20 24 0 27 -60 5 -97 -23 -39 -24 -45 -9 -95 6 -23 16 -38 25 -38 9 0
22 -7 31 -15 10 -11 25 -14 49 -9 22 4 34 2 34 -5 0 -6 9 -11 20 -11 18 0 40
-26 40 -49 0 -16 -26 -13 -40 3 -13 17 -40 10 -40 -10 0 -22 40 -43 71 -37 30
6 64 -17 57 -39 -3 -8 -12 -4 -25 9 -25 25 -37 20 -20 -8 15 -25 2 -35 -28
-21 -16 8 -26 8 -31 1 -8 -14 25 -49 47 -49 9 0 20 -6 22 -12 3 -7 6 -1 6 15
1 28 22 36 50 18 12 -8 13 -12 1 -26 -7 -9 -19 -14 -26 -11 -9 3 -11 -1 -7
-12 16 -46 44 -52 35 -7 -3 18 0 25 11 25 18 0 33 -33 17 -38 -18 -6 10 -32
35 -32 33 0 41 -46 9 -54 -28 -7 -39 -38 -24 -66 17 -32 51 -22 65 19 11 35
11 35 31 15 11 -11 35 -26 54 -33 19 -7 60 -25 90 -39 62 -29 128 -32 146 -7
17 23 28 19 79 -25 46 -40 69 -49 80 -30 3 5 15 15 26 20 18 10 19 9 13 -14
-5 -23 -3 -26 20 -26 15 0 29 -7 32 -15 5 -12 22 -14 89 -11 46 2 88 7 94 11
6 3 25 3 42 0 23 -5 34 -3 44 12 13 17 14 17 15 1 0 -10 6 -18 13 -18 8 0 24
-11 37 -25 13 -14 28 -25 34 -25 16 0 66 -56 66 -74 0 -9 8 -16 20 -16 11 0
20 -4 20 -10 0 -5 5 -10 11 -10 6 0 9 6 6 13 -3 8 5 34 18 60 13 25 21 54 18
65 -6 25 13 37 34 21 13 -12 20 -8 49 26 19 22 34 46 34 53 0 15 44 34 64 26
19 -7 31 15 27 53 -3 36 5 42 23 18 15 -20 213 -54 200 -34 -12 21 9 25 58 13
28 -8 56 -18 61 -23 6 -6 18 -4 33 6 25 16 90 19 185 8 53 -6 57 -5 62 17 11
40 8 46 -37 68 -43 20 -48 21 -153 8 -152 -18 -962 -18 -1093 0 -162 23 -257
53 -288 91 -19 23 -9 142 17 221 30 88 96 225 171 356 66 117 307 484 316 484
4 0 -2 -12 -12 -27 -50 -77 -190 -313 -254 -432 -129 -238 -200 -422 -200
-520 0 -56 1 -58 35 -74 149 -71 932 -89 1405 -32 152 19 224 38 256 70 50 50
34 59 -144 80 -24 3 -57 15 -73 27 -28 22 -29 26 -26 96 2 43 8 77 16 85 11
10 13 8 8 -11 -4 -19 -2 -22 11 -17 9 4 24 9 33 12 8 2 23 18 33 34 14 24 20
28 32 18 8 -6 17 -9 21 -6 3 4 11 0 17 -9 10 -13 12 -12 13 7 4 46 -149 315
-333 587 -57 84 -99 150 -94 147 39 -24 336 -454 421 -610 29 -53 45 -74 47
-62 2 10 -3 26 -12 36 -14 15 -15 28 -7 87 16 110 -6 204 -48 204 -31 0 -77
37 -95 78 l-19 42 28 26 c19 17 33 23 41 18 70 -52 130 -99 134 -104 13 -19
52 -21 71 -4 17 16 21 16 37 1 24 -22 99 -7 123 24 26 34 23 55 -11 79 -16 12
-30 27 -30 35 0 22 -50 75 -71 75 -10 0 -19 -4 -19 -8 0 -8 -52 -42 -64 -42
-3 0 -6 11 -6 25 0 23 -2 24 -42 19 -53 -7 -147 18 -180 49 -14 13 -30 21 -36
19 -8 -2 -12 14 -12 50 1 94 -5 132 -28 182 -12 27 -22 57 -22 66 0 61 -30 65
-62 8 -27 -50 -48 -57 -85 -28 -20 15 -28 18 -34 8 -8 -13 -24 -4 -24 13 0 8
-7 11 -20 8 -33 -9 -73 -1 -88 16 -18 20 -18 20 -13 0 8 -30 -8 -52 -27 -36
-11 9 -17 9 -22 1 -4 -6 0 -17 8 -23 8 -7 18 -22 21 -34 8 -25 -16 -35 -52
-19 -29 12 -38 2 -24 -29 9 -19 19 -25 44 -25 57 0 218 38 254 59 75 45 116
12 45 -36 -44 -30 -110 -49 -214 -63 -45 -7 -84 -13 -86 -15 -2 -3 8 -36 23
-76 33 -90 48 -190 34 -229 -8 -25 -15 -30 -43 -30 -18 0 -44 9 -59 21 -27 21
-79 117 -131 242 -15 37 -31 67 -35 67 -4 0 -65 5 -136 10 -155 13 -291 41
-347 72 -37 20 -42 28 -42 58 0 27 6 37 31 52 48 28 181 58 291 66 94 7 98 8
96 30 -3 24 -15 42 -47 70 -11 9 -29 27 -41 39 -15 16 -51 28 -121 43 -54 12
-130 30 -167 41 -38 11 -70 19 -72 17 -2 -2 49 -41 112 -88 158 -117 185 -141
108 -99 -89 49 -189 114 -290 189 -113 83 -129 100 -116 113 7 7 37 -2 98 -30
105 -49 196 -83 224 -83 15 0 18 5 13 24 -4 17 0 27 13 34 17 10 17 11 -1 18
-19 7 -39 -12 -32 -32 3 -6 -10 -11 -30 -12 -26 -1 -34 3 -34 16 0 11 -39 41
-109 85 -60 37 -112 67 -115 67 -3 0 -6 -9 -6 -20 0 -13 -7 -20 -19 -20 -10 0
-32 -16 -48 -37 -33 -40 -58 -38 -50 4 3 19 0 27 -14 30 -20 6 -27 47 -9 58
12 7 4 25 -11 25 -5 0 -12 -7 -15 -15z m1223 -1337 c44 -13 93 -32 107 -41 26
-17 26 -18 26 -158 l0 -141 -29 -29 -29 -29 -420 0 -420 0 -26 31 c-25 30 -26
35 -26 170 0 162 -5 154 124 189 106 29 217 39 431 36 159 -2 189 -6 262 -28z"/>
<path d="M5730 4960 l-24 -6 24 -17 c22 -15 25 -16 28 -2 6 25 -2 32 -28 25z"/>
<path d="M5787 4913 c-16 -4 -14 -8 14 -29 18 -13 35 -22 37 -19 6 6 -19 55
-27 54 -3 -1 -14 -3 -24 -6z"/>
<path d="M5150 4879 c0 -11 4 -18 10 -14 5 3 7 12 3 20 -7 21 -13 19 -13 -6z"/>
<path d="M6153 4883 c-9 -3 -6 -19 8 -56 24 -60 25 -62 31 -45 6 21 -26 105
-39 101z"/>
<path d="M6103 4836 c-10 -11 -9 -15 2 -20 26 -10 16 -26 -16 -26 -21 0 -40
-9 -56 -26 -13 -14 -23 -27 -21 -29 2 -1 27 -10 56 -20 44 -14 56 -15 70 -4 9
7 19 14 20 15 3 2 -39 125 -42 124 0 -1 -6 -7 -13 -14z"/>
<path d="M5100 4830 c0 -5 5 -10 11 -10 5 0 7 5 4 10 -3 6 -8 10 -11 10 -2 0
-4 -4 -4 -10z"/>
<path d="M6270 4528 c0 -8 4 -18 9 -23 5 -6 23 -49 41 -97 l33 -88 58 0 c41 0
59 4 59 13 0 23 -45 90 -62 93 -21 3 -78 60 -78 78 0 8 -8 16 -17 20 -10 3
-24 9 -30 12 -7 3 -13 -1 -13 -8z"/>
<path d="M6097 4505 c-161 -22 -267 -60 -267 -93 0 -43 151 -81 352 -89 l137
-6 -37 99 c-44 115 -33 110 -185 89z"/>
<path d="M6413 4273 l-41 -4 39 -89 c74 -171 100 -210 140 -210 21 0 21 4 17
69 -5 62 -46 197 -71 229 -5 6 -17 11 -26 10 -9 -1 -35 -3 -58 -5z"/>
<path d="M4693 3743 c-20 -7 -15 -41 7 -53 16 -8 22 -8 26 4 13 34 -5 61 -33
49z"/>
<path d="M7513 3264 c-8 -21 13 -42 28 -27 13 13 5 43 -11 43 -6 0 -13 -7 -17
-16z"/>
<path d="M6460 2760 c0 -5 5 -10 11 -10 5 0 7 5 4 10 -3 6 -8 10 -11 10 -2 0
-4 -4 -4 -10z"/>
<path d="M6438 2686 c-30 -10 -46 -42 -31 -57 15 -15 41 0 57 32 17 34 11 39
-26 25z"/>
<path d="M4601 2676 c-8 -10 -9 -16 -1 -21 13 -8 30 3 30 21 0 18 -14 18 -29
0z"/>
<path d="M4955 2680 c-3 -5 -1 -10 4 -10 6 0 11 5 11 10 0 6 -2 10 -4 10 -3 0
-8 -4 -11 -10z"/>
<path d="M5770 2650 c0 -5 7 -7 15 -4 8 4 15 8 15 10 0 2 -7 4 -15 4 -8 0 -15
-4 -15 -10z"/>
<path d="M6614 2615 c-9 -24 22 -53 38 -37 9 9 10 17 2 29 -15 24 -33 27 -40
8z"/>
<path d="M5693 2584 c-9 -23 11 -38 26 -20 13 16 7 36 -10 36 -5 0 -12 -7 -16
-16z"/>
<path d="M4962 2558 c6 -18 28 -21 28 -4 0 9 -7 16 -16 16 -9 0 -14 -5 -12
-12z"/>
<path d="M6193 2538 c-48 -50 -64 -118 -28 -118 8 0 18 -8 24 -17 7 -14 21
-18 61 -16 29 0 57 6 63 12 6 6 12 34 13 63 3 48 0 55 -29 80 -42 36 -66 35
-104 -4z"/>
<path d="M5896 2491 c-8 -13 3 -38 19 -45 18 -6 39 20 31 39 -6 16 -41 21 -50
6z"/>
<path d="M6384 2436 c-8 -22 3 -33 18 -18 9 9 9 15 0 24 -9 9 -13 7 -18 -6z"/>
<path d="M6532 2404 c1 -9 9 -19 16 -22 9 -3 13 2 10 14 -1 9 -9 19 -16 22 -9
3 -13 -2 -10 -14z"/>
<path d="M5630 2383 c-32 -12 -42 -69 -15 -80 23 -8 56 27 53 56 -3 26 -14 33
-38 24z"/>
<path d="M5990 2251 c0 -12 6 -21 16 -21 9 0 14 7 12 17 -5 25 -28 28 -28 4z"/>
<path d="M5950 2155 c-18 -33 -9 -69 17 -73 17 -3 26 3 33 23 15 39 12 49 -14
61 -21 10 -26 8 -36 -11z"/>
</g>
</svg>
