<?xml version="1.0" standalone="no"?>
<!DOCTYPE svg PUBLIC "-//W3C//DTD SVG 20010904//EN"
 "http://www.w3.org/TR/2001/REC-SVG-20010904/DTD/svg10.dtd">
<svg version="1.0" xmlns="http://www.w3.org/2000/svg"
 width="1080.000000pt" height="1080.000000pt" viewBox="0 0 1080.000000 1080.000000"
 preserveAspectRatio="xMidYMid meet">

<g transform="translate(0.000000,1080.000000) scale(0.100000,-0.100000)"
fill="#000000" stroke="none">
<path d="M3255 8716 c-10 -7 -16 -20 -12 -28 3 -9 54 -44 113 -79 123 -73 210
-152 246 -224 14 -28 65 -182 112 -344 128 -437 211 -702 214 -692 7 20 -250
996 -275 1045 -46 91 -138 180 -255 246 -32 17 -58 36 -58 41 0 23 183 -25
390 -103 74 -27 238 -94 365 -148 126 -55 231 -97 233 -95 11 11 -434 220
-638 300 -223 88 -384 118 -435 81z"/>
<path d="M4105 8343 c6 -6 75 -59 155 -119 292 -217 485 -378 673 -563 162
-159 214 -223 319 -391 46 -74 143 -216 215 -315 171 -237 236 -338 299 -465
64 -130 109 -261 141 -405 l23 -110 -5 87 c-6 111 -27 207 -71 338 -65 190
-137 313 -346 592 -81 109 -186 255 -232 325 -158 241 -355 432 -761 739 -148
111 -433 311 -410 287z"/>
<path d="M4653 7439 c-8 -8 11 -43 70 -127 157 -228 534 -801 688 -1047 339
-542 465 -790 660 -1300 28 -71 72 -186 98 -255 72 -187 73 -167 -6 -175 -188
-17 -315 -48 -348 -85 -25 -28 -16 -71 22 -96 57 -38 294 -83 438 -84 l61 0
48 -113 c63 -150 88 -191 131 -211 46 -22 67 -18 83 17 18 36 2 150 -33 234
-14 35 -25 66 -25 71 0 4 39 13 88 20 48 6 110 18 139 27 54 16 113 58 113 80
0 16 -51 30 -59 16 -17 -28 -210 -81 -292 -81 -13 0 -29 24 -59 86 -22 48 -40
90 -40 95 0 4 19 10 43 12 l42 4 -48 1 -48 2 -35 78 c-159 347 -316 659 -622
1227 -195 363 -356 662 -358 664 -2 3 -9 0 -15 -6 -8 -8 83 -185 319 -624 365
-681 403 -754 557 -1083 58 -126 111 -236 116 -245 12 -22 89 -207 89 -215 0
-3 -26 -6 -58 -6 l-58 0 -33 88 c-19 48 -63 164 -98 257 -299 789 -410 1018
-786 1620 -181 289 -725 1111 -766 1158 -4 4 -12 2 -18 -4z m1625 -3017 c18
-48 32 -90 32 -94 0 -21 -247 -2 -373 28 -82 20 -118 44 -98 67 31 38 219 84
351 86 l55 1 33 -88z m252 -234 c19 -48 34 -109 37 -150 5 -61 4 -68 -12 -68
-33 0 -82 67 -129 178 -25 60 -46 112 -46 116 0 3 27 6 59 6 l60 0 31 -82z"/>
<path d="M4169 7180 c179 -70 336 -149 336 -170 0 -13 -32 -15 -213 -15 -228
1 -233 -5 -28 -31 138 -17 256 -15 281 6 68 57 -95 156 -394 241 -158 44 -152
35 18 -31z"/>
<path d="M4081 6937 c-1 -4 8 -51 20 -104 43 -197 139 -428 212 -507 l38 -41
-29 60 c-16 33 -68 161 -115 285 -85 224 -125 322 -126 307z"/>
<path d="M6147 6483 c-2 -4 -8 -35 -12 -68 -4 -33 -16 -86 -26 -119 -21 -60
-107 -237 -155 -316 -18 -29 -21 -40 -10 -31 23 19 130 180 169 255 l32 61 7
-165 c7 -150 4 -288 -7 -395 l-4 -40 13 42 c8 23 19 81 25 130 12 96 14 545 3
607 -7 37 -24 57 -35 39z"/>
<path d="M4390 6272 c0 -4 39 -22 88 -41 113 -44 248 -109 263 -127 7 -8 9
-18 5 -22 -4 -4 -74 -7 -156 -7 -81 0 -146 -3 -144 -6 7 -12 203 -31 265 -27
145 11 108 87 -80 164 -74 30 -241 75 -241 66z"/>
<path d="M6282 6028 c-7 -7 -12 -34 -12 -61 0 -83 -65 -245 -171 -427 -18 -30
-25 -49 -17 -42 25 20 112 150 157 232 37 68 40 72 46 48 4 -15 5 -143 3 -287
-1 -143 0 -252 3 -243 25 69 34 186 34 464 0 255 -2 300 -15 313 -12 12 -18
13 -28 3z"/>
<path d="M4486 6002 c89 -158 339 -428 485 -525 156 -103 386 -199 618 -257
233 -58 230 -51 -19 35 -285 99 -501 203 -641 311 -89 68 -245 221 -347 339
-110 129 -119 137 -96 97z"/>
<path d="M6477 5493 c-3 -5 -8 -30 -12 -58 -7 -52 -34 -112 -92 -205 l-34 -55
56 59 55 59 0 -39 c0 -44 -17 -247 -25 -309 -10 -70 14 -14 35 84 23 106 62
434 54 456 -6 16 -30 20 -37 8z"/>
<path d="M5440 5125 c0 -15 143 -128 270 -212 76 -50 210 -126 210 -119 0 3
-65 53 -145 112 -80 59 -144 109 -142 110 2 2 64 -12 138 -30 144 -36 217 -51
209 -43 -3 3 -89 33 -192 66 -102 34 -217 77 -255 96 -75 38 -93 42 -93 20z"/>
<path d="M5588 4883 c-15 -18 4 -36 152 -142 131 -94 330 -213 330 -197 0 2
-65 52 -145 110 -80 59 -145 108 -145 110 0 1 56 -12 124 -30 149 -38 232 -51
222 -35 -4 6 -14 11 -22 11 -32 0 -357 114 -427 150 -67 34 -77 37 -89 23z"/>
<path d="M6543 4513 c9 -2 23 -2 30 0 6 3 -1 5 -18 5 -16 0 -22 -2 -12 -5z"/>
<path d="M6707 4192 c10 -15 60 -89 111 -165 186 -276 327 -524 379 -668 33
-93 38 -196 10 -227 -107 -118 -1591 -132 -1687 -17 -18 22 -6 124 25 215 50
146 202 438 369 708 120 194 104 181 -43 -33 -184 -270 -342 -562 -390 -719
-25 -81 -27 -172 -6 -203 54 -77 458 -122 965 -109 298 8 453 21 610 52 187
37 226 68 224 179 -4 179 -181 503 -497 912 -76 98 -110 135 -70 75z"/>
<path d="M6120 3683 c-83 -12 -210 -46 -238 -63 l-32 -20 0 -141 c0 -77 5
-149 10 -160 26 -47 43 -49 465 -49 355 0 400 2 426 17 43 26 50 55 47 203
l-3 135 -41 22 c-89 49 -179 63 -403 62 -113 -1 -217 -3 -231 -6z"/>
</g>
</svg>
